<?xml version="1.0" encoding="UTF-8"?>
<svg width="63px" height="64px" viewBox="0 0 63 64" version="1.1" xmlns="http://www.w3.org/2000/svg" xmlns:xlink="http://www.w3.org/1999/xlink">
    <title>Neutral</title>
    <defs>
        <filter id="filter-1">
            <feColorMatrix in="SourceGraphic" type="matrix" values="0 0 0 0 1.000000 0 0 0 0 1.000000 0 0 0 0 1.000000 0 0 0 1.000000 0"></feColorMatrix>
        </filter>
    </defs>
    <g id="Trave/Scrum-" stroke="none" stroke-width="1" fill="none" fill-rule="evenodd">
        <g id="Emote-o-matic" transform="translate(-209.000000, -288.000000)">
            <g id="Well-being">
                <g id="Neutral" transform="translate(209.000000, 288.760000)">
                    <circle id="Oval" fill="#14CBA4" cx="31.36" cy="31.36" r="31.36"></circle>
                    <g filter="url(#filter-1)">
                        <g transform="translate(8.960000, 8.960000)">
                            <path d="M26.7874308,12.6662612 C26.7874308,13.8006476 27.7070327,14.7202495 28.8414191,14.7202495 C29.9758055,14.7202495 30.8954074,13.8006476 30.8954074,12.6662612 C30.8954074,11.5318748 29.9758055,10.6122729 28.8414191,10.6122729 C27.7075606,10.6135463 26.7887042,11.5324027 26.7874308,12.6662612 L26.7874308,12.6662612 Z M29.5260819,12.6662612 C29.5260819,13.04439 29.2195479,13.350924 28.8414191,13.350924 C28.4632903,13.350924 28.1567563,13.04439 28.1567563,12.6662612 C28.1567563,12.2881324 28.4632903,11.9815984 28.8414191,11.9815984 C29.2193719,11.9820229 29.5256574,12.2883084 29.5260819,12.6662612 Z" id="Shape" fill="#000000" fill-rule="nonzero"></path>
                            <path d="M13.0941754,11.2969357 C13.0941754,12.4313221 14.0137773,13.350924 15.1481637,13.350924 C16.2825502,13.350924 17.202152,12.4313221 17.202152,11.2969357 C17.202152,10.1625493 16.2825502,9.24294737 15.1481637,9.24294737 C14.0143052,9.24422081 13.0954489,10.1630772 13.0941754,11.2969357 Z M15.8328265,11.2969357 C15.8328265,11.6750645 15.5262925,11.9815984 15.1481637,11.9815984 C14.7700349,11.9815984 14.463501,11.6750645 14.463501,11.2969357 C14.463501,10.9188069 14.7700349,10.6122729 15.1481637,10.6122729 C15.5261166,10.6126974 15.832402,10.9189828 15.8328265,11.2969357 Z" id="Shape" fill="#000000" fill-rule="nonzero"></path>
                            <path d="M17.6257871,35.856645 L17.6257871,34.2331384 L21.7928159,34.2331384 C22.4240636,34.2246926 23.0226273,33.9510368 23.4419973,33.4791535 C23.8578469,33.0240919 24.0902025,32.4310057 24.0941386,31.8145672 C24.0941386,31.7940273 24.0932828,31.765785 24.0932828,31.7366868 C24.0696992,31.128616 23.8143144,30.552622 23.3795219,30.1268735 C22.9491125,29.6906854 22.3628065,29.4437224 21.7500245,29.440499 L10.0397237,29.440499 C9.85423515,29.4429777 9.67613443,29.367903 9.54839255,29.2333885 C9.42461579,29.1040218 9.35485797,28.9323055 9.35334924,28.7532688 C9.35366536,28.6307291 9.38739726,28.5105962 9.45091368,28.4058024 L9.45091368,28.4066582 L10.9639328,25.8939459 L10.976,25.8708385 C11.3994137,25.02247 11.3538856,24.0154477 10.8556451,23.2087478 C10.3574047,22.4020479 9.4773461,21.9104549 8.52918643,21.9092086 L8.52661895,21.9092086 C7.75079996,21.909867 7.01158092,22.2391897 6.49222912,22.8155309 L2.96536003,26.7343694 C1.1111976,28.7945864 0.0855806893,31.4682685 0.0855806893,34.239985 C0.0838784336,36.7808653 1.09248444,39.2181674 2.88915851,41.0148415 C4.68583259,42.8115156 7.1231347,43.8201216 9.66401497,43.81842 C11.7761513,43.8201903 13.8022896,42.9819325 15.2957961,41.4884261 C16.7893025,39.9949196 17.6275603,37.9687813 17.6257871,35.856645 L17.6257871,35.856645 Z M16.2564616,32.8638129 L14.5156209,32.8638129 C14.1374921,32.8638129 13.8309582,33.1703468 13.8309582,33.5484756 C13.8309582,33.9266044 14.1374921,34.2331384 14.5156209,34.2331384 L16.2564616,34.2331384 L16.2564616,35.6142744 C16.2155382,35.6065976 16.1740033,35.6026446 16.1323665,35.6024639 L13.7069486,35.6024639 C13.3288198,35.6024639 13.0222858,35.9089979 13.0222858,36.2871267 C13.0222858,36.6652555 13.3288198,36.9717895 13.7069486,36.9717895 L16.1323665,36.9717895 C16.1421229,36.9717895 16.1516226,36.9707625 16.1612935,36.9703346 C16.0361101,37.7113475 15.7837156,38.4251287 15.4152678,39.0801229 C15.3308069,39.0441874 15.2399515,39.025702 15.1481637,39.0257778 L11.913988,39.0257778 C11.5358592,39.0257778 11.2293252,39.3323117 11.2293252,39.7104405 C11.2293252,40.0885694 11.5358592,40.3951033 11.913988,40.3951033 L14.4428755,40.3951033 C14.4038497,40.4361831 14.3658509,40.4780331 14.3257126,40.5183426 C13.0916735,41.7581465 11.4132859,42.4532893 9.66401497,42.4491105 C5.13028975,42.4491105 1.45490626,38.7737103 1.45490626,34.239985 C1.45331087,31.8060784 2.35440108,29.4580599 3.98388148,27.6501059 L7.50989474,23.7312674 C7.77005007,23.4430903 8.14009508,23.2785341 8.5283306,23.2785341 C9.28395312,23.2794314 9.8960306,23.8922366 9.89603007,24.6478596 C9.89564588,24.8519609 9.84974311,25.0534068 9.761665,25.2375255 L8.28014035,27.6963206 L8.27834311,27.6988881 C8.08590192,28.0169242 7.98412258,28.3815423 7.9840237,28.7532688 C7.98444873,29.2852205 8.19051916,29.7964101 8.55914043,30.1799348 C8.94382974,30.5827463 9.47673858,30.8103847 10.0337329,30.8098246 L21.7517361,30.8098246 C22.0026662,30.8145706 22.241483,30.9185913 22.415859,31.0990946 C22.6014097,31.2791137 22.7115541,31.5229611 22.7239573,31.7811899 C22.7248131,31.790604 22.7248131,31.8017297 22.7248131,31.8145672 C22.7196569,32.0897836 22.614734,32.3537637 22.4295523,32.5574263 C22.2699945,32.7443308 22.0391941,32.8555225 21.7935862,32.8638129 L16.256376,32.8638129 L16.2564616,32.8638129 Z" id="Shape" fill="#000000" fill-rule="nonzero"></path>
                            <path d="M6.73708164,6.58388834 L6.73785188,6.58388834 C6.89428617,6.5836914 7.04593572,6.52992996 7.16756335,6.43155088 L7.16841918,6.43069505 C7.39336882,6.24800406 7.47893823,5.94347858 7.38206809,5.67035862 C7.28519796,5.39723865 7.02687177,5.21468599 6.73708164,5.21456281 C6.58003194,5.21489975 6.42782432,5.26895762 6.30574409,5.3677561 C6.08079446,5.55044709 5.99522505,5.85497257 6.09209518,6.12809253 C6.18896532,6.4012125 6.4472915,6.58376516 6.73708164,6.58388834 Z" id="Path" fill="#000000" fill-rule="nonzero"></path>
                            <path d="M1.86827353,25.5678777 C1.94097152,25.5680709 2.01322291,25.5565106 2.08223064,25.5336421 C2.44114074,25.4151141 2.63639115,25.0284418 2.51870316,24.6692554 C1.81264468,22.5245492 1.45490838,20.4440303 1.45490838,18.4858947 C1.4583317,14.5114274 2.74036273,11.0641503 5.26334503,8.23991641 C5.4999414,7.95680127 5.46964458,7.53712458 5.19483675,7.29092814 C4.92002892,7.04473171 4.49955835,7.06057229 4.24405333,7.32674745 C2.93094901,8.78291865 1.89623064,10.4677082 1.19131322,12.2973991 C0.444837062,14.2745516 0.0699721749,16.3725763 0.085582846,18.4858947 C0.085582846,20.5895211 0.466426511,22.8146751 1.21775832,25.0971696 C1.30990445,25.3782996 1.57242759,25.5682584 1.86827353,25.5678777 L1.86827353,25.5678777 Z" id="Path" fill="#000000" fill-rule="nonzero"></path>
                            <path d="M43.5205888,17.7250632 C43.2683412,16.3613176 42.8954461,15.0226757 42.4063002,13.724921 C41.9207703,12.4398749 41.3212701,11.2008333 40.6149656,10.0226071 C39.9129333,8.85298229 39.1041797,7.75082661 38.1990475,6.73023501 C37.2967572,5.71260912 36.2966198,4.78614195 35.213062,3.96419743 C34.1208447,3.13664803 32.9454488,2.42504308 31.705877,1.84088702 C29.0988032,0.617544527 26.2524798,-0.0112365648 23.3726752,-0.000163942062 L23.364117,-0.000163942062 C20.7256574,-0.00840384981 18.0960967,0.306315677 15.5341424,0.937132164 C12.9880527,1.57386854 10.6636226,2.51870316 8.62589505,3.74510534 C8.36268613,3.90389495 8.23757243,4.2186428 8.31993799,4.51479984 C8.40230355,4.81095687 8.67195496,5.01591483 8.9793522,5.0160106 C9.10364053,5.01581626 9.22553167,4.98179325 9.33195353,4.91759033 C13.1284086,2.62910503 18.1093302,1.36932554 23.3564145,1.36932554 L23.364117,1.36932554 C28.6736767,1.37189302 33.5784296,3.59875867 37.1763325,7.63998066 C40.5824442,11.469813 42.5355303,16.6706826 42.5346745,21.9092086 C42.5355303,27.1477346 40.5824442,32.3486041 37.1763325,36.1784365 C33.5784296,40.2196585 28.6728209,42.4465241 23.364117,42.4490916 C21.5257974,42.4490916 19.6463981,42.0947786 17.778039,41.3972784 C17.701475,41.3682981 17.6202721,41.3535076 17.538407,41.3536312 C17.2067046,41.3529611 16.9222323,41.5901616 16.8632661,41.9165815 C16.8042999,42.2430014 16.9878027,42.5647393 17.2987751,42.6801653 L17.3176033,42.6861561 C19.3340207,43.4375735 21.368325,43.8185651 23.364117,43.8185651 L23.3718194,43.8185651 L23.3726752,43.814138 L23.3726752,43.8185651 C26.2524798,43.8296537 29.0988032,43.2008726 31.705877,41.9775301 C32.9454488,41.3933741 34.1208447,40.6817691 35.213062,39.8542197 C36.2966198,39.0322752 37.2967572,38.105808 38.1990475,37.0881821 C39.1041698,36.0678886 39.9129246,34.9660178 40.6149656,33.7966659 C41.3211104,32.6180549 41.9206024,31.3787439 42.4063002,30.0934961 C42.8954461,28.7957414 43.2683412,27.4570995 43.5205888,26.0933539 C44.0318037,23.3273461 44.0318037,20.4910711 43.5205888,17.7250632 L43.5205888,17.7250632 Z" id="Path" fill="#000000" fill-rule="nonzero"></path>
                            <path d="M19.6943245,6.66262456 C19.2081284,6.26209684 18.5448613,5.96426854 17.6685786,5.75287891 C16.0083894,5.38544239 14.2879381,5.38544239 12.6277489,5.75287891 C11.7505248,5.96426854 11.0881135,6.26209684 10.602003,6.66262456 C10.3113164,6.904627 10.2718502,7.33645672 10.5138526,7.62714324 C10.7558551,7.91782976 11.1876848,7.957296 11.4783713,7.71529357 C11.7702088,7.46710331 12.317939,7.23089466 12.9444055,7.08454799 C13.6668375,6.92261711 14.4052484,6.84280442 15.1455963,6.84662768 L15.1507312,6.84662768 C15.8907965,6.84280241 16.6289241,6.92261551 17.3510662,7.08454799 C17.9783029,7.23089466 18.5261187,7.46710331 18.8179562,7.71529357 C19.1086427,7.957296 19.5404724,7.91782976 19.7824749,7.62714324 C20.0244773,7.33645672 19.985011,6.904627 19.6943245,6.66262456 L19.6943245,6.66262456 Z" id="Path" fill="#000000" fill-rule="nonzero"></path>
                            <path d="M33.3875799,8.05762495 C33.5756211,7.90107682 33.6658609,7.6561016 33.6243068,7.41497908 C33.5827528,7.17385655 33.4157179,6.97321897 33.1861227,6.88864457 C32.9565274,6.80407017 32.6992527,6.84840782 32.5112115,7.00495595 C32.2604538,7.22832717 31.580926,7.48935485 30.8209503,7.65538558 C29.5533828,7.94465559 27.9676182,8.08073232 26.8601762,8.14491945 C26.3569491,8.17401762 25.8442223,8.19541333 25.3350899,8.20739493 C25.1365377,8.21167407 24.9833444,8.21424156 24.8900591,8.21509739 C24.7882155,8.21595322 24.7351542,8.21595322 24.7334425,8.21595322 C24.3553137,8.21595322 24.0487797,8.52248718 24.0487797,8.90061598 C24.0487797,9.27874479 24.3553137,9.58527875 24.7334425,9.58527875 L24.7393477,9.58527875 C24.915734,9.58442292 26.5127099,9.57500881 28.2885539,9.41154558 C29.2416846,9.33178477 30.1887378,9.19114179 31.1239136,8.99047797 C31.9378065,8.7987724 32.7748067,8.55314963 33.3875799,8.05762495 L33.3875799,8.05762495 Z" id="Path" fill="#000000" fill-rule="nonzero"></path>
                            <path d="M17.8868148,21.2245458 C17.8868148,21.6026746 18.1933488,21.9092086 18.5714776,21.9092086 L22.6794542,21.9092086 C23.057583,21.9092086 23.364117,21.6026746 23.364117,21.2245458 C23.364117,20.846417 23.057583,20.539883 22.6794542,20.539883 L18.5714776,20.539883 C18.1933488,20.539883 17.8868148,20.846417 17.8868148,21.2245458 Z" id="Path" fill="#000000" fill-rule="nonzero"></path>
                        </g>
                    </g>
                </g>
            </g>
        </g>
    </g>
</svg>