<?xml version="1.0" encoding="UTF-8"?>
<svg width="64px" height="64px" viewBox="0 0 64 64" version="1.1" xmlns="http://www.w3.org/2000/svg" xmlns:xlink="http://www.w3.org/1999/xlink">
    <title>Sad</title>
    <g id="Trave/Scrum-" stroke="none" stroke-width="1" fill="none" fill-rule="evenodd">
        <g id="Emote-o-matic" transform="translate(-124.000000, -288.000000)">
            <g id="Well-being">
                <g id="Sad" transform="translate(124.520000, 288.760000)">
                    <circle id="Oval" fill="#E4E4E4" cx="31.36" cy="31.36" r="31.36"></circle>
                    <g transform="translate(8.960000, 8.960000)" fill="#000000" fill-rule="nonzero">
                        <path d="M41.8200156,31.9274086 C41.4810599,31.7466616 41.0597611,31.8741035 40.877821,32.2124202 L40.8769494,32.2149479 C36.9254741,39.6528253 28.8990293,43.9958011 20.5111409,43.2345482 C12.1232524,42.4732952 5.00981421,36.756281 2.46193919,28.7285471 C-0.0859358235,20.7008132 2.42866564,11.9280124 8.84233463,6.46898054 C8.98331176,6.34911629 9.07080961,6.17808972 9.08552584,5.99362991 C9.10024208,5.8091701 9.04096747,5.626434 8.92077821,5.48573385 C8.80092702,5.34506265 8.63009977,5.25776817 8.44588177,5.24305688 C8.26166377,5.22834559 8.07914757,5.28742277 7.93849027,5.40729027 C-0.723144172,12.7637931 -2.46389268,25.4586033 3.89777432,34.875144 C6.31945833,38.4624151 9.72941156,41.2704872 13.7145525,42.9591907 C24.3634509,47.4555793 36.6833221,43.078033 42.1075549,32.8704747 C42.2878817,32.5305855 42.159301,32.1088688 41.8200156,31.9274086 L41.8200156,31.9274086 Z" id="Path"></path>
                        <path d="M13.0495253,3.6031751 C13.1539952,3.60361398 13.2571706,3.58005659 13.3510973,3.53431907 C16.1736649,2.17548301 19.2673877,1.47371868 22.4,1.48171206 L22.4026148,1.48171206 C32.0007266,1.46612279 40.3728844,7.99670074 42.6942257,17.3098833 C42.7711187,17.6203427 43.0498722,17.83831 43.3697121,17.8380704 C43.5845427,17.8382792 43.7874762,17.7394479 43.9197712,17.5701839 C44.0520661,17.4009199 44.098951,17.1801226 44.0468545,16.9717043 C43.4496645,14.580247 42.457555,12.3052206 41.1114086,10.2403735 C35.0012511,0.835134904 22.8594766,-2.57350141 12.7470817,2.2774786 C12.4537608,2.41850022 12.2970113,2.74368291 12.3694016,3.06099021 C12.4417919,3.37829751 12.7240652,3.60332179 13.0495253,3.6031751 L13.0495253,3.6031751 Z" id="Path"></path>
                        <path d="M10.6230039,4.96896498 C10.7578469,4.96877209 10.8897795,4.92973697 11.0030195,4.85652918 L11.0047626,4.85478599 C11.3239198,4.64921796 11.4199769,4.22610078 11.2208677,3.90287474 C11.0217586,3.5796487 10.6006584,3.47510342 10.2734942,3.66767315 L10.2769805,3.66418677 L10.2421167,3.68771984 C9.98373198,3.85630619 9.86685271,4.17465219 9.95476648,4.47038044 C10.0426803,4.7661087 10.3144848,4.9689072 10.6230039,4.96896498 Z" id="Path"></path>
                        <path d="M18.2163424,18.9136187 C18.2163424,17.7583335 17.2797988,16.8217899 16.1245136,16.8217899 C14.9692285,16.8217899 14.0326848,17.7583335 14.0326848,18.9136187 C14.0326848,20.0689038 14.9692285,21.0054475 16.1245136,21.0054475 C17.2792413,21.0041026 18.2149976,20.0683463 18.2163424,18.9136187 Z M15.4272374,18.9136187 C15.4272374,18.5285236 15.7394186,18.2163424 16.1245136,18.2163424 C16.5096087,18.2163424 16.8217899,18.5285236 16.8217899,18.9136187 C16.8217899,19.2987137 16.5096087,19.6108949 16.1245136,19.6108949 C15.7395978,19.6104626 15.4276697,19.2985345 15.4272374,18.9136187 L15.4272374,18.9136187 Z" id="Shape"></path>
                        <path d="M30.7673152,18.9136187 C30.7673152,17.7583335 29.8307715,16.8217899 28.6754864,16.8217899 C27.5202012,16.8217899 26.5836576,17.7583335 26.5836576,18.9136187 C26.5836576,20.0689038 27.5202012,21.0054475 28.6754864,21.0054475 C29.830214,21.0041026 30.7659703,20.0683463 30.7673152,18.9136187 Z M27.9782101,18.9136187 C27.9782101,18.5285236 28.2903913,18.2163424 28.6754864,18.2163424 C29.0605814,18.2163424 29.3727626,18.5285236 29.3727626,18.9136187 C29.3727626,19.2987137 29.0605814,19.6108949 28.6754864,19.6108949 C28.2905705,19.6104626 27.9786424,19.2985345 27.9782101,18.9136187 L27.9782101,18.9136187 Z" id="Shape"></path>
                        <path d="M34.9509728,15.4272374 C34.9509728,15.0421423 34.6387915,14.7299611 34.2536965,14.7299611 C30.7788202,14.7299611 28.8442272,14.3612763 27.9140607,12.3458864 C27.7526577,11.9962201 27.3383542,11.8436025 26.9886879,12.0050055 C26.6390216,12.1664084 26.4864041,12.5807119 26.647807,12.9303782 C28.0093261,15.8804669 31.0225183,16.1245136 34.2536965,16.1245136 C34.6387915,16.1245136 34.9509728,15.8123324 34.9509728,15.4272374 Z" id="Path"></path>
                        <path d="M10.5463035,16.1245136 C13.7774817,16.1245136 16.7906739,15.8804669 18.152193,12.9303782 C18.2566024,12.7041838 18.2324074,12.4394697 18.088722,12.2359513 C17.9450365,12.0324329 17.7036899,11.9210294 17.4555951,11.9437054 C17.2075003,11.9663814 16.9903487,12.1196919 16.8859393,12.3458864 C15.9557728,14.3612763 14.0211798,14.7299611 10.5463035,14.7299611 C10.1612085,14.7299611 9.84902724,15.0421423 9.84902724,15.4272374 C9.84902724,15.8123324 10.1612085,16.1245136 10.5463035,16.1245136 L10.5463035,16.1245136 Z" id="Path"></path>
                        <path d="M36.1658895,19.4094693 C36.3190362,19.2071084 36.3501451,18.9375201 36.2471123,18.7055976 C36.1440794,18.473675 35.9231761,18.3160445 35.670353,18.294038 C35.4175299,18.2720315 35.1727138,18.3891243 35.0311595,18.5997572 L35.0302879,18.600716 C34.8787261,18.8130757 34.8585923,19.0923433 34.9781249,19.3242476 C35.0976576,19.556152 35.3367988,19.701779 35.5976965,19.7015411 C35.8185217,19.7016259 36.0263651,19.5972194 36.1581323,19.4200156 L36.1581323,19.4208 L36.1658895,19.4094693 Z" id="Path"></path>
                        <path d="M43.7645447,21.6783191 C43.0942879,20.3744125 42.0806226,18.8464187 40.7523113,17.1373074 C39.8388794,15.9631813 39.0997665,15.1230506 38.9611829,14.9661634 L38.4373541,14.3804514 L37.9170117,14.962677 C37.8978366,14.9844669 37.4262163,15.5125665 36.7525603,16.3441556 C36.5105056,16.6432506 36.5561163,17.0818149 36.854537,17.3247004 C36.9981594,17.441431 37.1822977,17.4962737 37.3663835,17.4771458 C37.5504692,17.4580179 37.7193984,17.3664888 37.8359533,17.2227237 L37.8411829,17.215751 C38.0398195,16.9708327 38.2403735,16.7285292 38.4373541,16.4949416 C38.9559533,17.1094163 39.9643891,18.3401089 40.916084,19.703284 C41.5503024,20.5910786 42.1181207,21.5244786 42.6149105,22.4958755 C43.0690117,23.4023346 43.3252607,24.2250335 43.3182879,24.7533074 C43.3182879,27.4489727 41.1330194,29.6342412 38.4373541,29.6342412 C35.7416888,29.6342412 33.5564202,27.4489727 33.5564202,24.7533074 C33.5545899,24.4081556 33.6610117,23.9331362 33.8561619,23.4153214 C34.0878177,22.8207637 34.3655686,22.2452124 34.6868794,21.6939206 C34.7786684,21.5333245 34.8027673,21.3428002 34.753856,21.1644073 C34.7049448,20.9860144 34.5870454,20.8344227 34.4261852,20.7430973 C34.2654859,20.6513445 34.0748683,20.6273491 33.8964427,20.676412 C33.7180172,20.725475 33.566468,20.8435584 33.4752747,21.0045759 C33.1168475,21.61981 32.8076576,22.2624375 32.5505992,22.9264436 C32.2865058,23.6332202 32.1636109,24.2137899 32.1618677,24.7533074 C32.1618677,28.2191628 34.9714987,31.0287938 38.4373541,31.0287938 C41.9032095,31.0287938 44.7128405,28.2191628 44.7128405,24.7533074 C44.7058677,23.9052451 44.4130117,22.9569494 43.7645447,21.6783191 L43.7645447,21.6783191 Z" id="Path"></path>
                        <path d="M11.940856,32.1618677 C11.9422009,33.3165953 12.8779572,34.2523517 14.0326848,34.2536965 L30.7673152,34.2536965 C31.9220428,34.2523517 32.8577991,33.3165953 32.859144,32.1618677 C32.8552533,28.6976251 30.0479001,25.890272 26.5836576,25.8863813 L18.2163424,25.8863813 C14.7520999,25.890272 11.9447467,28.6976251 11.940856,32.1618677 Z M18.2163424,27.2809339 L26.5836576,27.2809339 C29.2780685,27.28396 31.4615653,29.4674568 31.4645914,32.1618677 C31.4641591,32.5467835 31.152231,32.8587117 30.7673152,32.859144 L14.0326848,32.859144 C13.647769,32.8587117 13.3358409,32.5467835 13.3354086,32.1618677 C13.3384347,29.4674568 15.5219315,27.28396 18.2163424,27.2809339 L18.2163424,27.2809339 Z" id="Shape"></path>
                    </g>
                </g>
            </g>
        </g>
    </g>
</svg>