<?xml version="1.0" encoding="UTF-8"?>
<svg width="64px" height="64px" viewBox="0 0 64 64" version="1.1" xmlns="http://www.w3.org/2000/svg" xmlns:xlink="http://www.w3.org/1999/xlink">
    <title>Happy</title>
    <defs>
        <filter id="filter-1">
            <feColorMatrix in="SourceGraphic" type="matrix" values="0 0 0 0 1.000000 0 0 0 0 1.000000 0 0 0 0 1.000000 0 0 0 1.000000 0"></feColorMatrix>
        </filter>
    </defs>
    <g id="Trave/Scrum-" stroke="none" stroke-width="1" fill="none" fill-rule="evenodd">
        <g id="Emote-o-matic" transform="translate(-376.000000, -288.000000)">
            <g id="Well-being">
                <g id="Happy" transform="translate(376.680000, 288.760000)">
                    <circle id="Oval" fill="#14CBA4" cx="31.36" cy="31.36" r="31.36"></circle>
                    <g filter="url(#filter-1)">
                        <g transform="translate(8.960000, 8.960000)">
                            <path d="M42.3192,15.7045 C42.1481671,15.7767168 42.0128279,15.9139192 41.9429563,16.0859235 C41.8730847,16.2579277 41.8744044,16.4506437 41.946625,16.621675 C42.9083813,18.8925216 43.4026776,21.3338873 43.4,23.8 C43.4,34.607475 33.9794,43.4 22.4,43.4 C10.8206,43.4 1.4,34.607475 1.4,23.8 C1.3973224,21.3338873 1.89161875,18.8925216 2.853375,16.621675 C3.00376214,16.2655204 2.83695463,15.8548871 2.4808,15.7045 C2.12464537,15.5541129 1.71401214,15.7209204 1.563625,16.077075 C0.528927956,18.5202118 -0.0028638309,21.146793 -1.1505484e-05,23.8 C-1.1505484e-05,29.4182 2.33625,34.6975125 6.5774625,38.6654625 C10.80625,42.62125 16.4254125,44.8 22.4,44.8 C28.3745875,44.8 33.99375,42.62125 38.2225375,38.6654625 C42.46375,34.6975125 44.8000115,29.4182 44.8000115,23.8 C44.8028638,21.146793 44.271072,18.5202118 43.236375,16.077075 C43.1641582,15.9060421 43.0269558,15.7707029 42.8549515,15.7008313 C42.6829473,15.6309597 42.4902313,15.6322794 42.3192,15.7045 L42.3192,15.7045 Z" id="Path" fill="#000000" fill-rule="nonzero"></path>
                            <path d="M30.0999936,19.6 L14.7,19.6 C13.5407417,19.601302 12.601302,20.5407417 12.5999936,21.7 L12.5999936,30.8 C12.5978731,32.651728 13.1235755,34.4657046 14.1155,36.02935 C14.1362883,36.0715474 14.1612014,36.1115842 14.189875,36.148875 C14.1936375,36.153775 14.1980125,36.1582375 14.2018625,36.16305 C16.0101962,38.9313084 19.0934421,40.6 22.4,40.6 C25.7065579,40.6 28.7898038,38.9313084 30.5981375,36.16305 C30.6019875,36.15815 30.6063625,36.153775 30.610125,36.148875 C30.6381415,36.1122621 30.6625509,36.0730253 30.6830125,36.0317125 C31.6759143,34.4675575 32.2021557,32.6526819 32.2000066,30.8 L32.2000066,21.7 C32.198698,20.5407417 31.2592583,19.601302 30.0999936,19.6 L30.0999936,19.6 Z M30.8000038,30.8 C30.8009928,31.8443221 30.6062695,32.8795815 30.2259125,33.852175 C29.7129333,32.7824582 28.940519,31.8580516 27.979,31.163125 C27.2049904,30.5952207 26.3434481,30.157504 25.428375,29.86725 C24.449326,29.5550961 23.4276042,29.397454 22.4,29.4 C22.127,29.4 21.8505,29.411375 21.578375,29.43325 C21.3233577,29.4458463 21.0954277,29.5962951 20.9836078,29.8258355 C20.8717878,30.0553759 20.8938179,30.327592 21.0410936,30.5361642 C21.1883693,30.7447364 21.4375259,30.8565753 21.69125,30.828 C21.924,30.809625 22.162875,30.8 22.4,30.8 L22.402625,30.8 C24.16575,30.8 25.850125,31.3285 27.146,32.288375 C28.3185,33.158125 29.082725,34.309625 29.320025,35.5558 C27.7550094,37.8366743 25.1665667,39.2000167 22.4004031,39.2000167 C19.6342394,39.2000167 17.0456588,37.8372159 15.4804125,35.5565 C15.6737875,34.5373 16.2148875,33.58425 17.05725,32.787125 C17.3380008,32.5214639 17.3505307,32.0786103 17.08525,31.7975 C16.9580333,31.6623422 16.7822273,31.5834135 16.59669,31.5781594 C16.4111526,31.5729052 16.2311617,31.6417582 16.0965,31.7695 C15.5505509,32.2798204 15.0905146,32.8748834 14.734125,33.53175 C14.6771625,33.63745 14.624575,33.74455 14.574175,33.8522625 C14.1937394,32.8796582 13.9989849,31.8443607 13.9999961,30.8 L13.9999961,21.7 C14.000434,21.3135806 14.3135806,21.000434 14.7,21 L30.1,21 C30.4864194,21.000434 30.799566,21.3135806 30.8000038,21.7 L30.8000038,30.8 Z" id="Shape" fill="#000000" fill-rule="nonzero"></path>
                            <path d="M29.19875,16.023875 C29.9417491,16.6602342 30.7327658,17.2382849 31.56475,17.752875 L31.740625,17.856125 L31.943625,17.85 C31.9482218,17.8490108 31.9529408,17.8487158 31.957625,17.849125 C33.8386675,17.7356633 35.694662,17.3601646 37.471875,16.7335 C39.16325,16.127125 40.599125,15.318625 41.73925,14.329 C42.410837,13.7513458 42.9968325,13.0810895 43.479625,12.338375 C43.998614,11.5319925 44.3830852,10.6466155 44.618,9.716875 C44.8431615,8.83328786 44.8596376,7.90942877 44.666125,7.018375 C44.5844559,6.64047418 44.2119008,6.40033094 43.834,6.48200004 C43.4560992,6.56366915 43.2159559,6.93622417 43.297625,7.314125 C43.4455901,7.9933535 43.4330065,8.69773994 43.260875,9.37125 C42.868,10.908625 42.069125,12.18525 40.821375,13.272 C39.050375,14.8155 36.719375,15.596 35.07525,15.97925 C34.3226993,16.1559117 33.560431,16.2882641 32.792375,16.375625 C32.55875,16.401875 32.333875,16.422875 32.125625,16.43775 L32.101125,16.438625 C30.8535258,15.6307658 29.7029313,14.6821638 28.672,13.6115 C27.7813896,12.7003394 27.0253531,11.6667555 26.42675,10.542 C25.776625,9.281125 25.44675,8.003625 25.44675,6.74625 C25.4475569,6.12196228 25.526632,5.50023869 25.682125,4.895625 C25.940688,3.87816515 26.5467091,2.98306149 27.395375,2.365125 C28.2579758,1.73613293 29.2984291,1.39810052 30.366,1.4 C30.803075,1.40055016 31.2383812,1.45551455 31.661875,1.563625 C32.9710034,1.88700468 34.0971579,2.71902379 34.790875,3.875375 L35.147875,4.47475 L35.749,4.1195 C36.5260815,3.66186672 37.411804,3.42132248 38.313625,3.423 C38.9568257,3.42460673 39.5943403,3.54351061 40.194875,3.773875 C40.5558621,3.91232588 40.9607366,3.73192462 41.0991875,3.3709375 C41.2376384,3.00995038 41.0572371,2.60507588 40.69625,2.466625 C39.9358336,2.17435965 39.1282729,2.02399856 38.313625,2.023 C37.3852671,2.02050498 36.4674731,2.21994752 35.623875,2.6075 C35.1905409,2.02895465 34.6628203,1.52756087 34.062875,1.124375 C32.3793226,-0.00477201839 30.2711615,-0.300133829 28.342125,0.322875 C27.7041139,0.531451771 27.1035703,0.840733237 26.56325,1.239 C26.0227373,1.63682917 25.5527622,2.12247993 25.172875,2.67575 C24.7816938,3.24547565 24.4946259,3.88004693 24.325,4.55 C24.1414251,5.26769147 24.0479556,6.00545356 24.04675,6.74625 C24.04675,8.273125 24.451,9.809625 25.249,11.31025 C26.12925,12.96225 27.4575,14.54775 29.19875,16.023875 L29.19875,16.023875 Z" id="Path" fill="#000000" fill-rule="nonzero"></path>
                            <path d="M42.725375,5.39875001 C43.0367893,5.39880849 43.310796,5.1931335 43.3976985,4.89409033 C43.484601,4.59504715 43.3635001,4.27455311 43.1005561,4.10770196 C42.837612,3.9408508 42.4960607,3.96776881 42.2625,4.17375 C41.9723346,4.42915978 41.9441299,4.87142464 42.1995,5.161625 C42.3327329,5.31234498 42.5242096,5.39868473 42.725375,5.39875001 L42.725375,5.39875001 Z" id="Path" fill="#000000" fill-rule="nonzero"></path>
                            <path d="M1.320375,12.338375 C1.80316749,13.0810895 2.38916298,13.7513458 3.06075,14.329 C4.6585,15.71325 6.792625,16.7265 9.4045,17.3425 C10.5368121,17.6140491 11.6911769,17.7836019 12.85375,17.849125 L13.0585,17.856125 L13.2335,17.75375 C13.2359717,17.7517802 13.2386061,17.7500239 13.241375,17.7485 C14.597251,16.9035998 15.847428,15.8998746 16.965375,14.758625 C18.053875,13.649125 18.923625,12.488875 19.550125,11.31025 C20.349,9.809625 20.75325,8.274 20.75325,6.74625 C20.7520971,6.0054502 20.6586268,5.26768159 20.475,4.55 C20.3053741,3.88004693 20.0183062,3.24547565 19.627125,2.67575 C19.2472378,2.12247993 18.7772627,1.63682917 18.23675,1.239 C17.6964297,0.840733237 17.0958861,0.531451771 16.457875,0.322875 C15.8047039,0.108343874 15.1214996,-0.00064981877 14.434,-2.8885434e-06 C13.8803985,0.000676426294 13.3290199,0.0700396261 12.7925,0.2065 C12.0596873,0.391979249 11.3643658,0.702491077 10.737125,1.124375 C10.1371797,1.52756087 9.60945909,2.02895465 9.176125,2.6075 C8.33151654,2.22298163 7.41439297,2.02368477 6.486375,2.023 C5.67172711,2.02399856 4.86416643,2.17435965 4.10375,2.466625 C3.92992865,2.53209205 3.7898617,2.66490329 3.71525,2.835 C3.63918584,3.00439861 3.63383191,3.19714008 3.700375,3.3705 C3.83885477,3.73170136 4.24389732,3.91228609 4.605125,3.773875 C5.20565973,3.54351061 5.84317431,3.42460673 6.486375,3.423 C7.388457,3.42143572 8.27443211,3.66196647 9.051875,4.1195 L9.652125,4.47475 L10.009125,3.87625 C10.702508,2.71942115 11.8287551,1.88701869 13.138125,1.563625 C13.5619058,1.45545947 13.9975083,1.40049478 14.434875,1.4 C15.5021336,1.39837139 16.5422265,1.73638629 17.404625,2.365125 C18.2528926,2.98306512 18.8588341,3.87774177 19.117875,4.89475 C19.2732074,5.49969194 19.3522792,6.12168459 19.35325,6.74625 C19.35325,8.040375 19.00325,9.3555 18.314625,10.653125 C17.325,12.518625 15.80075,14.021875 14.6965,14.9555 C14.06825,15.486625 13.505625,15.894375 13.145125,16.142875 C12.989375,16.249625 12.838875,16.349375 12.698,16.4395 C10.9388683,16.3069237 9.20655428,15.931486 7.550375,15.323875 C6.078625,14.77 4.841375,14.048125 3.873625,13.180125 C2.6845,12.110875 1.9215,10.864875 1.539125,9.37125 C1.36699355,8.69773994 1.35440987,7.9933535 1.502375,7.314125 C1.58340428,6.93634075 1.34353044,6.56420369 0.966,6.482 C0.917109586,6.47152683 0.867249599,6.46624754 0.81725,6.46625 C0.488296925,6.46762823 0.204333415,6.6970533 0.133875,7.018375 C-0.059637619,7.90942877 -0.0431615327,8.83328786 0.182,9.716875 C0.416748162,10.6466723 0.801230666,11.5320755 1.320375,12.338375 Z" id="Path" fill="#000000" fill-rule="nonzero"></path>
                            <path d="M1.61175,5.22375 C1.86227963,5.44508242 2.2342806,5.45858478 2.50019706,5.25599757 C2.76611351,5.05341036 2.8518604,4.69117492 2.70498569,4.39087348 C2.55811098,4.09057203 2.21953437,3.93586937 1.89636578,4.02139829 C1.57319718,4.10692722 1.35547225,4.40885916 1.376375,4.7425 C1.3879156,4.92778113 1.47258176,5.10089038 1.61175,5.22375 Z" id="Path" fill="#000000" fill-rule="nonzero"></path>
                            <path d="M18.921875,30.0772497 C18.6880602,30.077469 18.4697928,30.1944138 18.3400956,30.3889596 C18.2103984,30.5835053 18.1863984,30.8299617 18.276125,31.045875 C18.4109221,31.3702436 18.7652411,31.5444819 19.1044359,31.4532013 C19.4436307,31.3619207 19.6626501,31.0333915 19.6164496,30.6851807 C19.5702491,30.3369699 19.2731372,30.0769209 18.921875,30.0772497 L18.921875,30.0772497 Z" id="Path" fill="#000000" fill-rule="nonzero"></path>
                        </g>
                    </g>
                </g>
            </g>
        </g>
    </g>
</svg>