<?xml version="1.0" encoding="UTF-8"?>
<svg width="64px" height="64px" viewBox="0 0 64 64" version="1.1" xmlns="http://www.w3.org/2000/svg" xmlns:xlink="http://www.w3.org/1999/xlink">
    <title>Content</title>
    <defs>
        <filter id="filter-1">
            <feColorMatrix in="SourceGraphic" type="matrix" values="0 0 0 0 0.000000 0 0 0 0 0.000000 0 0 0 0 0.000000 0 0 0 1.000000 0"></feColorMatrix>
        </filter>
    </defs>
    <g id="Trave/Scrum-" stroke="none" stroke-width="1" fill="none" fill-rule="evenodd">
        <g id="Emote-o-matic" transform="translate(-292.000000, -288.000000)">
            <g id="Well-being">
                <g id="Content" transform="translate(292.200000, 288.760000)">
                    <circle id="Oval" fill="#E4E4E4" cx="31.36" cy="31.36" r="31.36"></circle>
                    <g filter="url(#filter-1)">
                        <g transform="translate(8.960000, 8.960000)">
                            <path d="M26.0058324,43.1381209 C25.9713335,43.1381321 25.9368851,43.1407595 25.9027836,43.1459805 C25.0509531,43.2714856 24.1910851,43.3345309 23.3300585,43.3346121 C22.2954652,43.3331117 21.2628182,43.2448913 20.242963,43.0708772 C20.2039708,43.0646434 20.1645552,43.0614318 20.1250682,43.0612706 C19.7615475,43.0609101 19.4584945,43.3393795 19.4281736,43.7016338 C19.3978528,44.063888 19.6503974,44.3888612 20.0089201,44.4489357 C21.1061106,44.6359219 22.2170494,44.7305693 23.3300585,44.731883 C24.2595038,44.7318132 25.1876901,44.6635127 26.1071345,44.5275322 C26.4679556,44.4729725 26.7260034,44.1499032 26.6994672,43.7859465 C26.6729311,43.4219898 26.3707514,43.1397668 26.0058324,43.1381209 L26.0058324,43.1381209 Z" id="Path" fill="#000000" fill-rule="nonzero"></path>
                            <path d="M1.27850292,28.396039 C1.36243039,28.6311295 1.56540186,28.8035873 1.81095995,28.8484492 C2.05651803,28.8933112 2.30735662,28.8037616 2.46898724,28.6135331 C2.63061786,28.4233045 2.67848497,28.1612971 2.5945575,27.9262066 C2.27434113,27.0317614 2.01925553,26.1153211 1.83129825,25.1840624 C1.59348035,23.9947668 1.47325987,22.7849568 1.47237427,21.572117 C1.47237427,16.2188226 3.86432749,10.9677037 8.03518129,7.16538012 C8.22339003,6.99841514 8.30728752,6.74314829 8.25482747,6.49708371 C8.20236741,6.25101912 8.02165335,6.05216647 7.78171252,5.97648138 C7.54177168,5.9007963 7.27966781,5.95996987 7.09551657,6.13139961 L7.09376998,6.1322729 C6.00808821,7.12162654 5.02261058,8.21562663 4.15164133,9.39839376 C3.29150193,10.5669128 2.55183678,11.8194866 1.94395322,13.1369669 C1.33914549,14.450033 0.87431764,15.8231485 0.557161793,17.2335906 C-0.0517394769,19.9380541 -0.0841731821,22.7404453 0.46197271,25.4582768 C0.662741559,26.4559899 0.935634696,27.4378214 1.27850292,28.396039 L1.27850292,28.396039 Z" id="Path" fill="#000000" fill-rule="nonzero"></path>
                            <path d="M12.125692,4.1394152 C12.2398201,4.13926259 12.3522033,4.11139155 12.4531774,4.05819883 C14.3684386,3.04382647 16.4212868,2.31394453 18.5470253,1.89155556 C20.0002357,1.60051808 21.4785882,1.45338486 22.960655,1.4522885 C27.6738246,1.4514152 32.2647329,2.98404678 35.8889045,5.76636257 C39.6038986,8.6202885 42.0412632,12.4916023 42.9363899,16.9628694 C43.1911242,18.2557641 43.3180719,19.5705798 43.3153996,20.8883275 C43.3062955,23.3045574 42.9233365,25.7048268 42.180117,28.0039298 C42.1236391,28.180416 42.1396818,28.3721192 42.2247072,28.5367636 C42.3097325,28.7014081 42.4567567,28.8254701 42.6333567,28.8815906 C42.7018796,28.9038633 42.773516,28.9147813 42.8455673,28.9147813 C43.1498861,28.9155931 43.4194324,28.7185625 43.5110175,28.4283509 C43.9020066,27.203796 44.2012104,25.9518104 44.4061442,24.6827914 C44.6083681,23.42805 44.7108642,22.1592591 44.7127046,20.8883275 C44.7151822,19.4784731 44.5788729,18.0717966 44.3057154,16.688655 C43.8262105,14.2802545 42.9012639,11.9825487 41.5784172,9.91363743 C40.2843836,7.892934 38.6467071,6.11427714 36.7394932,4.65815205 C34.8111166,3.1816543 32.6520904,2.0338325 30.3495984,1.26103704 C27.9687587,0.45920855 25.4728883,0.0518338886 22.960655,0.0549990273 C19.069977,0.0586364632 15.2386288,1.00905539 11.7973333,2.82423392 C11.5144204,2.97500723 11.3704261,3.29897815 11.4480813,3.61001194 C11.5257365,3.92104573 11.8051108,4.13931509 12.125692,4.1394152 L12.125692,4.1394152 Z" id="Path" fill="#000000" fill-rule="nonzero"></path>
                            <path d="M9.74509162,5.59956361 C10.1309373,5.5993222 10.4435316,5.28633695 10.4432906,4.90049123 C10.4430493,4.51464551 10.130064,4.20205124 9.74421832,4.2022892 C9.60352746,4.20186403 9.46607967,4.24453075 9.35036257,4.32455361 L9.34337622,4.32892008 C9.09371056,4.50399842 8.98643897,4.82077776 9.0783601,5.11152828 C9.17028123,5.40227881 9.44015671,5.59982265 9.74509162,5.59956361 L9.74509162,5.59956361 Z" id="Path" fill="#000000" fill-rule="nonzero"></path>
                            <path d="M12.2445474,13.1267493 C12.7896234,13.017727 13.3556836,13.1297019 13.8181996,13.4380405 C14.2807157,13.746379 14.6018004,14.2258236 14.7108179,14.7709006 C14.7865402,15.1492464 15.1546351,15.3945713 15.5329809,15.3188491 C15.9113267,15.2431269 16.1566517,14.875032 16.0809294,14.4966862 C15.6845173,12.6242129 13.8551033,11.4194298 11.9783097,11.7948555 C10.1015161,12.1702812 8.87632895,13.9860936 9.23072125,15.8669723 C9.30880205,16.2427391 9.67538191,16.4851632 10.0517258,16.4099136 C10.4280698,16.334664 10.6732469,15.9699197 10.6008327,15.5930199 C10.4918104,15.0479438 10.6037853,14.4818837 10.9121239,14.0193676 C11.2204625,13.5568516 11.699907,13.2357669 12.244984,13.1267493 L12.2445474,13.1267493 Z" id="Path" fill="#000000" fill-rule="nonzero"></path>
                            <path d="M28.6861474,9.83844678 C29.821182,9.61141544 30.9253594,10.3474816 31.1524179,11.4825107 C31.2013548,11.7272732 31.3771536,11.9273355 31.6135925,12.0073361 C31.8500315,12.0873367 32.1111899,12.0351217 32.2986919,11.8703599 C32.486194,11.7055981 32.5715537,11.4533207 32.5226168,11.2085583 C32.1442709,9.31678083 30.3039724,8.08990211 28.4121949,8.46824795 C26.5204175,8.8465938 25.2935388,10.6868923 25.6718846,12.5786698 C25.7208371,12.8234322 25.8966503,13.0234862 26.133097,13.1034734 C26.3695437,13.1834605 26.6307022,13.1312288 26.8181964,12.9664535 C27.0056907,12.8016781 27.0910359,12.5493925 27.0420834,12.30463 C26.8151063,11.1696255 27.5511594,10.0655068 28.6861474,9.83844678 L28.6861474,9.83844678 Z" id="Path" fill="#000000" fill-rule="nonzero"></path>
                            <path d="M6.14746823,21.8271189 C6.18360814,22.0089264 6.29059593,22.1688857 6.44482867,22.2717075 C6.5990614,22.3745293 6.78786524,22.4117645 6.96958752,22.3751984 C7.71883183,22.2362767 8.41962788,21.9066017 9.00436335,21.4179805 C9.803777,23.6783283 11.5492304,25.5618495 14.0230986,26.7987836 C15.9475774,27.7610667 18.1614659,28.253692 20.4649544,28.253692 C21.5693414,28.2523078 22.6708965,28.1419417 23.7536062,27.9241981 C27.1990144,27.2351688 30.2352842,25.537048 32.3031579,23.1427368 C34.1108772,21.0495376 34.9977949,18.6395945 34.8663641,16.2457201 C35.2832728,16.3782196 35.7182399,16.4451263 36.1556959,16.4440452 C36.4771133,16.4431693 36.797657,16.410524 37.1126519,16.3465856 C37.4910218,16.2709116 37.7364053,15.9028362 37.6607314,15.5244663 C37.5850574,15.1460963 37.216982,14.9007128 36.8386121,14.9763867 C34.668825,15.4100647 33.7286363,13.6977965 33.6917832,13.6288936 C33.5131181,13.2897162 33.0945111,13.1578657 32.7537165,13.3334265 C32.412922,13.5089873 32.2772548,13.926373 32.4496967,14.2687563 C32.6814204,14.6949814 32.9892396,15.0751677 33.3579228,15.3905029 C34.2830908,20.278506 29.8703345,25.2761949 23.4798285,26.5540865 C17.0893224,27.8319782 11.0938074,24.9163103 10.0679485,20.0480437 C10.2869607,19.615185 10.4248575,19.1458801 10.4748164,18.6633481 C10.495767,18.4145921 10.3824165,18.173555 10.1774628,18.0310332 C9.9725091,17.8885114 9.70708958,17.8661573 9.48118522,17.9723915 C9.25528085,18.0786257 9.10321188,18.2973087 9.08226121,18.5460647 C9.07448889,18.628591 8.86516023,20.5710596 6.69546043,21.0049996 C6.31711547,21.080699 6.07177169,21.4487734 6.14746823,21.8271189 L6.14746823,21.8271189 Z" id="Path" fill="#000000" fill-rule="nonzero"></path>
                            <path d="M42.2569669,30.4884522 C40.6862742,28.9140074 38.5529931,28.0302734 36.3290448,28.0327434 L34.9745653,28.0327434 C34.6007402,28.0331948 34.2306755,28.1073858 33.8855673,28.2510721 C33.5502952,28.3906213 33.2444915,28.5924162 32.9843275,28.8457856 C32.7231183,29.0983387 32.513691,29.3994275 32.3677817,29.7321793 C32.2155976,30.0778218 32.1370801,30.4513749 32.137232,30.829037 C32.137232,30.8430097 32.137232,30.8622222 32.1381053,30.8858012 C32.1478218,31.3563157 32.2760778,31.8167759 32.5110019,32.2245614 L27.2860819,32.2245614 C26.7461324,32.2242203 26.2257047,32.4264703 25.8276803,32.7913294 C25.4236675,33.1602685 25.181421,33.6736301 25.1534971,34.220039 C25.1517505,34.2584639 25.1508772,34.2907758 25.1508772,34.3204678 C25.1504571,34.5876471 25.2014531,34.8524112 25.3010838,35.1003197 C24.9771628,35.1925345 24.6791,35.358756 24.4304094,35.5858713 C24.0262648,35.9547131 23.7839912,36.4681322 23.7562261,37.0145809 C23.7544795,37.0530058 23.7536062,37.0844444 23.7536062,37.1150097 C23.7536062,38.2725469 24.6919755,39.2109162 25.8495127,39.2109162 L26.6677895,39.2109162 C26.5882918,39.4352502 26.5478258,39.6715485 26.5481481,39.9095517 C26.5481481,39.9488499 26.5490214,39.9820351 26.550768,40.0134737 C26.5799381,40.558565 26.8220505,41.070388 27.2249513,41.4386901 C27.4736419,41.6658054 27.7717047,41.8320269 28.0956257,41.9242417 C27.995995,42.1721502 27.944999,42.4369143 27.9454191,42.7040936 C27.9454191,42.7398986 27.9462924,42.7739571 27.948039,42.8080156 C27.9770237,43.3531538 28.2191677,43.8650435 28.6222222,44.233232 C29.020077,44.5983637 29.5406153,44.8006567 30.0806238,44.800002 L36.3290448,44.800002 C39.7209851,44.8023173 42.779895,42.7599149 44.0779131,39.6261611 C45.3759312,36.4924073 44.6571023,32.8852446 42.2569669,30.4884522 L42.2569669,30.4884522 Z M41.269271,41.3566004 C39.9614757,42.6704465 38.182825,43.407123 36.3290448,43.4027486 L30.0797505,43.4027486 C29.8896579,43.4023143 29.7065561,43.3310042 29.5662534,43.2027446 C29.4331102,43.0840865 29.3529305,42.917124 29.3435634,42.7390253 L29.3435634,42.7346589 C29.3426901,42.7267992 29.3426901,42.7163197 29.3426901,42.7040936 C29.3444116,42.3189632 29.6561951,42.0071796 30.0413255,42.0054581 L34.2331384,42.0054581 C34.6189841,42.0054581 34.9317739,41.6926683 34.9317739,41.3068226 C34.9317739,40.9209769 34.6189841,40.6081871 34.2331384,40.6081871 L29.3426901,40.6081871 C29.3295033,40.6081871 29.3164912,40.6094097 29.3035665,40.6101957 L28.6824795,40.6081871 C28.4926258,40.6073625 28.3097635,40.5364567 28.1689825,40.409076 C28.0359618,40.2899589 27.9558327,40.1227876 27.9462924,39.9444834 L27.9462924,39.940117 C27.9454191,39.9322573 27.9454191,39.9217778 27.9454191,39.9095517 C27.9471406,39.5244213 28.2589242,39.2126377 28.6440546,39.2109162 L34.2331384,39.2109162 C34.6189841,39.2109162 34.9317739,38.8981264 34.9317739,38.5122807 C34.9317739,38.126435 34.6189841,37.8136452 34.2331384,37.8136452 L25.8495127,37.8136452 C25.4643823,37.8119237 25.1525987,37.5001401 25.1508772,37.1150097 C25.1508772,37.1019103 25.1508772,37.0914308 25.1517505,37.080078 C25.1611176,36.9019793 25.2412973,36.7350168 25.3744405,36.6163587 C25.5147433,36.4880991 25.697845,36.416789 25.8879376,36.4163743 L34.2331384,36.4163743 C34.6189841,36.4163743 34.9317739,36.1035845 34.9317739,35.7177388 C34.9317739,35.3318931 34.6189841,35.0191033 34.2331384,35.0191033 L27.2467836,35.0191033 C26.8616532,35.0173818 26.5498696,34.7055982 26.5481481,34.3204678 C26.5481481,34.3126082 26.5481481,34.3003821 26.5490214,34.2855361 C26.5585617,34.1072319 26.6386908,33.9400606 26.7717115,33.8209435 C26.91232,33.6932834 27.0952939,33.6223343 27.2852086,33.6218324 L37.0276803,33.6218324 C37.413526,33.6218324 37.7263158,33.3090426 37.7263158,32.9231969 C37.7263158,32.5373512 37.413526,32.2245614 37.0276803,32.2245614 L34.9309006,32.2245614 C34.1712885,32.221084 33.552365,31.6137726 33.5345029,30.8543626 L33.5345029,30.829037 C33.5369813,30.4578195 33.6901674,30.1035373 33.958924,29.8474542 C34.2306552,29.5804422 34.596222,29.4305786 34.9771852,29.4300195 L36.3290448,29.4300195 C39.1548407,29.4300195 41.7024361,31.1320884 42.7838353,33.7427776 C43.8652345,36.3534668 43.2674618,39.3585125 41.269271,41.3566004 L41.269271,41.3566004 Z" id="Shape" fill="#000000" fill-rule="nonzero"></path>
                            <path d="M19.5600468,40.0073606 C19.5609201,39.9706823 19.5617934,39.9392437 19.5617934,39.9095517 C19.56219,39.6715422 19.5217218,39.4352314 19.442152,39.2109162 L20.2604288,39.2109162 C21.417966,39.2109162 22.3563353,38.2725469 22.3563353,37.1150097 C22.3563353,37.0826979 22.355462,37.0495127 22.3537154,37.0163275 C22.3263468,36.4692776 22.0840449,35.9551707 21.6795322,35.5858713 C21.4307162,35.35893 21.1326966,35.1927325 20.8088577,35.1003197 C20.9084885,34.8524112 20.9594845,34.5876471 20.9590643,34.3204678 C20.9590643,34.2864094 20.958191,34.2532242 20.9564444,34.2209123 C20.9288776,33.674163 20.6865898,33.1604 20.2822612,32.7913294 C19.8842368,32.4264703 19.3638091,32.2242203 18.8238596,32.2245614 L13.5989396,32.2245614 C13.8345752,31.8154877 13.9628563,31.3534356 13.9718363,30.8814347 L13.9727096,30.8770682 L13.9727096,30.829037 C13.9728614,30.4513749 13.8943439,30.0778218 13.7421598,29.7321793 C13.5962505,29.3994275 13.3868232,29.0983387 13.125614,28.8457856 C12.8654501,28.5924162 12.5596463,28.3906213 12.2243743,28.2510721 C11.879266,28.1073858 11.5092014,28.0331948 11.1353762,28.0327485 L8.38362573,28.0327485 C5.3884447,28.0327485 2.62078326,29.6306585 1.12319272,32.2245614 C-0.374397811,34.8184642 -0.374397811,38.0142843 1.12319272,40.6081872 C2.62078326,43.20209 5.3884447,44.8000016 8.38362573,44.8000016 L16.0293177,44.8000016 C16.5693262,44.8006567 17.0898645,44.5983637 17.4877193,44.233232 C17.8918639,43.8643902 18.1341374,43.3509711 18.1619025,42.8045224 L18.1619025,42.8019025 C18.1636491,42.7678441 18.1645224,42.7364055 18.1645224,42.7040936 C18.1649425,42.4369143 18.1139465,42.1721502 18.0143158,41.9242417 C18.3382368,41.8320269 18.6362996,41.6658054 18.8849903,41.4386901 C19.2891348,41.0698483 19.5314084,40.5564292 19.5591735,40.0099805 L19.5600468,40.0073606 Z M18.1645224,37.8136452 L11.1781676,37.8136452 C10.7923219,37.8136452 10.4795322,38.126435 10.4795322,38.5122807 C10.4795322,38.8981264 10.7923219,39.2109162 11.1781676,39.2109162 L17.4658869,39.2109162 C17.8510173,39.2126377 18.1628009,39.5244213 18.1645224,39.9095517 C18.1645224,39.9191579 18.1645224,39.9296374 18.1636491,39.9444834 C18.1541089,40.1227876 18.0739798,40.2899589 17.9409591,40.409076 C17.800178,40.5364567 17.6173158,40.6073625 17.427462,40.6081871 L11.1781676,40.6081871 C10.7923219,40.6081871 10.4795322,40.9209769 10.4795322,41.3068226 C10.4795322,41.6926683 10.7923219,42.0054581 11.1781676,42.0054581 L16.068616,42.0054581 C16.4537464,42.0071796 16.76553,42.3189632 16.7672515,42.7040936 C16.7672515,42.7128265 16.7672515,42.7259259 16.7663782,42.7416452 C16.756184,42.9187821 16.6760882,43.0846276 16.5436881,43.2027446 C16.4036351,43.3308454 16.220865,43.4021475 16.0310643,43.402729 L8.38362573,43.402729 C4.52516853,43.402729 1.39727096,40.2748315 1.39727096,36.4163743 C1.39727096,32.5579171 4.52516853,29.4300195 8.38362573,29.4300195 L11.1327563,29.4300195 C11.5137195,29.4305786 11.8792863,29.5804422 12.1510175,29.8474542 C12.4199174,30.1034374 12.5731311,30.4577835 12.5754386,30.829037 L12.5754386,30.858729 C12.5551774,31.6160508 11.9374965,32.2205895 11.1799142,32.2245614 L7.68499025,32.2245614 C7.29914453,32.2245614 6.98635478,32.5373512 6.98635478,32.9231969 C6.98635478,33.3090426 7.29914453,33.6218324 7.68499025,33.6218324 L12.5754386,33.6218324 C12.5987723,33.6218304 12.6220905,33.6206354 12.6453021,33.6182519 L18.8247329,33.6218324 C19.0146195,33.6224837 19.1975416,33.6934127 19.33823,33.8209435 C19.4712507,33.9400606 19.5513798,34.1072319 19.5609201,34.2855361 C19.5617934,34.2977622 19.5617934,34.3099883 19.5617934,34.3204678 C19.5600719,34.7055982 19.2482883,35.0173818 18.8631579,35.0191033 L11.1781676,35.0191033 C10.7923219,35.0191033 10.4795322,35.3318931 10.4795322,35.7177388 C10.4795322,36.1035845 10.7923219,36.4163743 11.1781676,36.4163743 L18.8631579,36.4163743 C18.888131,36.4163299 18.9130841,36.4149598 18.9379119,36.4122698 L20.2216546,36.4163743 C20.4117171,36.4169484 20.5947633,36.4882369 20.7351517,36.6163587 C20.8682949,36.7350168 20.9484746,36.9019793 20.9578417,37.080078 C20.958715,37.0905575 20.958715,37.1019103 20.958715,37.1150097 C20.9569935,37.5001401 20.6452099,37.8119237 20.2600795,37.8136452 L18.1645224,37.8136452 Z" id="Shape" fill="#000000" fill-rule="nonzero"></path>
                        </g>
                    </g>
                </g>
            </g>
        </g>
    </g>
</svg>