<?xml version="1.0" encoding="UTF-8"?>
<svg width="64px" height="64px" viewBox="0 0 64 64" version="1.1" xmlns="http://www.w3.org/2000/svg" xmlns:xlink="http://www.w3.org/1999/xlink">
    <title>Angry</title>
    <g id="Trave/Scrum-" stroke="none" stroke-width="1" fill="none" fill-rule="evenodd">
        <g id="Emote-o-matic" transform="translate(-41.000000, -288.000000)">
            <g id="Well-being">
                <g id="Angry" transform="translate(41.320000, 288.760000)">
                    <circle id="Oval" fill="#E4E4E4" cx="31.36" cy="31.36" r="31.36"></circle>
                    <g transform="translate(8.960000, 8.960000)" fill="#000000" fill-rule="nonzero">
                        <path d="M31.2734565,40.9609981 C31.1555187,40.9609405 31.0395196,40.9909998 30.9364522,41.0483275 C28.2143938,42.5521404 25.3568873,43.3153996 22.4436647,43.3153996 C19.5304421,43.3153996 16.6729357,42.5521404 13.9508772,41.0483275 C13.7320333,40.921851 13.4619412,40.9234441 13.2446045,41.0524933 C13.0272678,41.1815426 12.8965848,41.41792 12.9028774,41.6706043 C12.90917,41.9232885 13.0514567,42.1528682 13.2749474,42.2709396 L13.2810604,42.2744327 C14.6692534,43.0455524 16.144483,43.6483092 17.6754776,44.0699259 C19.2287966,44.4944076 20.8316448,44.7105484 22.4419181,44.7126706 L22.4454986,44.7126706 C24.0557727,44.7105598 25.6586224,44.4944188 27.2119392,44.0699259 C28.7453162,43.6480173 30.2226709,43.044058 31.6124694,42.2709396 C31.8913383,42.1166464 32.0304393,41.7931824 31.9506079,41.4846354 C31.8707765,41.1760885 31.5922509,40.9606784 31.2735439,40.9609981 L31.2734565,40.9609981 Z" id="Path"></path>
                        <path d="M1.53525146,26.1342073 C1.59323947,26.1342073 1.65101807,26.1272488 1.70729045,26.1132476 C2.08127129,26.0183268 2.30785397,25.6386055 2.21380117,25.2644055 C1.73620198,23.4009358 1.49127021,21.4854814 1.48460039,19.5617934 C1.48547368,16.2432749 2.25309942,13.2399283 3.76564522,10.6348912 C5.19610136,8.17316179 7.24746979,6.13663938 9.86289903,4.58042885 C10.0223421,4.48576276 10.1376107,4.33159418 10.1833119,4.15188559 C10.229013,3.972177 10.2013972,3.78167194 10.1065481,3.62233762 C9.97957035,3.41109305 9.75140499,3.28159289 9.50493567,3.28087953 C9.37943203,3.28087953 9.25631416,3.31518473 9.14863158,3.37964912 C7.79411178,4.18042638 6.54194147,5.14286736 5.41966472,6.24580117 C3.14429182,8.48444217 1.52234897,11.3011035 0.728327485,14.3927641 C0.295060012,16.0813802 0.0796447412,17.818496 0.0873294347,19.5617934 C0.0938147421,21.6008829 0.352825928,23.6313194 0.858448343,25.6067368 C0.936475678,25.9169091 1.21541541,26.1342073 1.53525146,26.1342073 L1.53525146,26.1342073 Z" id="Path"></path>
                        <path d="M11.9964444,3.41536954 C12.0906952,3.41562918 12.1840067,3.39664 12.2706589,3.35956335 C12.5764401,3.22941871 12.7482243,2.90188796 12.681445,2.5763418 C12.6146658,2.25079565 12.3278078,2.01734612 11.9954838,2.01809411 C11.6096381,2.01836118 11.2970634,2.33136598 11.2973285,2.7172117 C11.2975939,3.10305742 11.6105987,3.41563213 11.9964444,3.41536954 L11.9964444,3.41536954 Z" id="Path"></path>
                        <path d="M14.6250604,2.47491618 C14.6916046,2.47483645 14.7577872,2.46512966 14.8215517,2.44609747 C17.2994556,1.73581905 19.8660128,1.38265278 22.4436647,1.39727096 L22.4471579,1.39727096 C28.2807641,1.39727096 33.5607018,3.09757505 37.3141209,6.18379727 C41.291016,9.46127096 43.396616,14.0871111 43.402729,19.5617934 C43.3960289,21.4854849 43.1510678,23.4009392 42.6734409,25.2644055 C42.579491,25.6385904 42.8060329,26.0182435 43.1799517,26.1132476 C43.2359372,26.1271961 43.2934204,26.1342067 43.3511173,26.1342067 L43.3519906,26.1342067 C43.671816,26.1342067 43.9507388,25.9168911 44.0287938,25.6067368 C44.5344456,23.6313231 44.7934862,21.6008865 44.8000086,19.5617934 C44.8026199,16.56194 44.2079064,13.7727251 43.0307057,11.2707368 C41.9032151,8.87945767 40.2527868,6.77210254 38.2013879,5.10440546 C36.1866979,3.44951267 33.7929981,2.16926316 31.0884055,1.29858869 C28.4117583,0.437520468 25.5028148,-5.58835747e-15 22.4436647,-5.58835747e-15 C19.7329874,-0.0144558966 17.0341066,0.357823806 14.4285692,1.10559064 C14.0582618,1.21423955 13.8460169,1.60237797 13.9543704,1.97277193 C14.0428527,2.26966098 14.3152693,2.47361873 14.6250604,2.47491618 L14.6250604,2.47491618 Z" id="Path"></path>
                        <path d="M11.9641326,18.8631579 C15.3593263,18.8631579 16.5861302,17.3581224 16.7148538,17.1864327 L15.597037,16.3480702 L15.6048094,16.33794 C15.5675197,16.3839626 14.6590316,17.4658869 11.9641326,17.4658869 C9.26923353,17.4658869 8.36074542,16.3839626 8.32345575,16.33794 L8.33122807,16.3480702 L7.21341131,17.1864327 C7.34213489,17.3581224 8.56893879,18.8631579 11.9641326,18.8631579 Z" id="Path"></path>
                        <path d="M32.9231969,18.8631579 C36.3183906,18.8631579 37.5451945,17.3581224 37.6739181,17.1864327 L36.5561014,16.3480702 L36.5638737,16.33794 C36.526584,16.3839626 35.6180959,17.4658869 32.9231969,17.4658869 C30.2282979,17.4658869 29.3198097,16.3839626 29.2825201,16.33794 L29.2902924,16.3480702 L28.1724756,17.1864327 C28.3011992,17.3581224 29.5280031,18.8631579 32.9231969,18.8631579 L32.9231969,18.8631579 Z" id="Path"></path>
                        <path d="M18.4300039,27.4793419 C18.1725966,27.766797 18.1969551,28.2084952 18.4844101,28.4659025 C18.7718652,28.7233098 19.2135634,28.6989514 19.4709708,28.4114963 C19.4845068,28.396301 20.8705996,26.8974659 22.4436647,26.8974659 C24.0289559,26.8974659 25.4041326,28.3976109 25.4163587,28.4114963 C25.582872,28.5974471 25.8359403,28.6804389 26.0802351,28.6292096 C26.3245299,28.5779802 26.522937,28.4003126 26.6007185,28.1631324 C26.6785,27.9259522 26.6238389,27.6652927 26.4573255,27.4793419 C26.3850168,27.3985622 24.6596491,25.5001949 22.4436647,25.5001949 C20.2276803,25.5001949 18.5023127,27.3985622 18.4300039,27.4793419 L18.4300039,27.4793419 Z" id="Path"></path>
                        <path d="M38.4956881,11.0266511 C38.4555117,10.8457573 38.3451167,10.6882345 38.1887917,10.58874 C38.0324666,10.4892455 37.8430184,10.4559305 37.6621287,10.4961248 L27.2165676,12.8174285 C26.2776102,13.0270718 25.3166517,12.5697041 24.8872296,11.7087813 L24.4657778,10.8657903 C24.3561567,10.6391202 24.1330471,10.4889706 23.881783,10.4727702 C23.6305189,10.4565699 23.3899748,10.5768251 23.252153,10.7875412 C23.1143313,10.9982573 23.1005551,11.2668332 23.2160936,11.490545 L23.6375454,12.3336234 C24.353012,13.7686933 25.9547397,14.5310759 27.5196881,14.1814269 L37.9651618,11.8602105 C38.1460555,11.8200342 38.3035783,11.7096392 38.4030728,11.5533141 C38.5025673,11.396989 38.5358823,11.2075408 38.4956881,11.0266511 L38.4956881,11.0266511 Z" id="Path"></path>
                        <path d="M18.1295906,14.2653505 C19.4518015,14.2648466 20.660076,13.5168269 21.250046,12.3335361 L21.6714979,11.490545 C21.8379266,11.1464101 21.6968747,10.7324167 21.3549559,10.5614812 C21.0130371,10.3905457 20.5972263,10.5261467 20.4218136,10.8657903 L20.0003618,11.708694 C19.5709643,12.5696679 18.6100694,13.0271854 17.6710238,12.8177778 L7.22520078,10.4961248 C6.8485189,10.4124445 6.47532162,10.6499692 6.39164133,11.0266511 C6.30796104,11.403333 6.54548576,11.7765302 6.92216764,11.8602105 L17.3676413,14.1814269 C17.6177997,14.2371296 17.8733056,14.2652718 18.1295906,14.2653505 L18.1295906,14.2653505 Z" id="Path"></path>
                        <path d="M39.9717302,26.6529435 C39.9530417,26.6529435 39.934295,26.6529435 39.9154901,26.6529435 C39.8464998,26.5724257 39.774977,26.4951683 39.7009216,26.4211712 C38.2457253,24.9800109 35.9651197,24.7936202 34.2952296,25.9793715 L26.3545388,19.8712016 C25.7596352,19.4121668 24.9163875,19.4662966 24.3850575,19.9976267 C23.8537274,20.5289567 23.7995976,21.3722044 24.2586324,21.967108 L30.3318706,29.8623002 L30.3144047,29.8797661 C28.6774728,31.5167583 28.6774728,34.1707832 30.3144047,35.8077754 C30.3882854,35.8817144 30.465601,35.9532954 30.5463517,36.0225185 C30.5260948,37.9853562 31.6951789,39.7654301 33.5045043,40.5266685 C35.3138297,41.2879068 37.4038662,40.8790443 38.7929575,39.492117 C38.8777835,39.4071745 38.9598732,39.3185934 39.0392265,39.2263735 C41.4476755,39.0655469 43.3675015,37.1511281 43.5351205,34.7431423 C44.8265329,33.3303212 45.161992,31.2882678 44.3904351,29.5365517 C43.6188783,27.7848355 41.885838,26.6538686 39.9717302,26.6529435 L39.9717302,26.6529435 Z M42.3986152,33.9100195 L42.1523462,34.1479922 L42.149377,34.4395852 C42.1314594,36.3222849 40.6001152,37.839056 38.7173302,37.8389708 L38.6998643,37.8389708 L38.3466168,37.8372242 L38.1358035,38.1206955 C37.540767,38.9226761 36.6261599,39.4259839 35.63025,39.4995004 C34.63434,39.5730169 33.6557426,39.2094623 32.9493957,38.5035478 C32.2266835,37.7821499 31.8633732,36.7760105 31.9584686,35.7593076 L31.9953216,35.3581162 L31.6665263,35.1252959 C31.5369679,35.0338094 31.4153531,34.9315629 31.3029739,34.8196429 C30.2116859,33.7283147 30.2116859,31.9589648 31.3029739,30.8676366 C31.4229784,30.7480344 31.55351,30.6394821 31.6929871,30.5432951 L32.2973068,30.1252491 L25.3664062,21.115384 C25.3368938,21.0767492 25.3404993,21.0222438 25.3748438,20.9878332 C25.4091882,20.9534225 25.4636866,20.9497121 25.5023782,20.9791501 L34.3628226,27.7948632 L34.7964133,27.3756819 C35.382448,26.8086716 36.1871054,26.5262462 36.9989584,26.602614 C37.8108115,26.6789818 38.5486866,27.1065072 39.0187041,27.7728561 L39.2515244,28.1016515 L39.6527158,28.0647984 C41.0928896,27.9314745 42.4621954,28.714911 43.0770906,30.0240251 C43.6919858,31.3331392 43.4206138,32.8872076 42.3984405,33.9104561 L42.3986152,33.9100195 Z" id="Shape"></path>
                        <path d="M14.3407158,36.0223439 C14.42135,35.9532954 14.4986074,35.8817726 14.5724881,35.8077754 C15.3586255,35.0216554 15.8002744,33.9554374 15.8002744,32.8436834 C15.8002744,31.7319295 15.3586255,30.6657115 14.5724881,29.8795914 L14.5550222,29.8621255 L20.6283478,21.966846 C21.0869829,21.3719039 21.0326813,20.5289641 20.5015023,19.997785 C19.9703233,19.466606 19.1273835,19.4123044 18.5324413,19.8709396 L10.5917505,25.9791096 C8.92182065,24.7935549 6.64137218,24.9798959 5.18605848,26.4208218 C5.11206134,26.4947025 5.04053853,26.5719891 4.97149006,26.6526815 C4.95280156,26.6526815 4.9339384,26.6526815 4.9152499,26.6526815 C3.00131287,26.653786 1.26848572,27.7846766 0.496922258,29.5362034 C-0.274641202,31.2877301 0.0605545697,33.3296036 1.35159766,34.742531 C1.51921659,37.1505168 3.43904262,39.0649356 5.84749162,39.2257622 C5.92661209,39.3178074 6.00870175,39.4063886 6.09376062,39.4915057 C7.48225493,40.8801718 9.57320417,41.2901263 11.3832732,40.5285751 C13.1933422,39.7670239 14.3622839,37.9855339 14.3403665,36.0219072 L14.3407158,36.0223439 Z M7.08241715,38.5035478 C6.96313297,38.3841633 6.85271748,38.2562354 6.7520499,38.1207828 L6.54097466,37.8375735 L6.1877271,37.8393201 L6.17026121,37.8393201 C4.28747619,37.8394053 2.75613202,36.3226343 2.73821442,34.4399345 L2.73524522,34.1483415 L2.52565458,33.9453006 L2.49028616,33.9118534 C1.46737181,32.8889414 1.1953173,31.3346218 1.80997978,30.0250826 C2.42464226,28.7155435 3.79415333,27.9317306 5.23461365,28.0650604 L5.63580507,28.1019135 L5.86862534,27.7731181 C6.3385688,27.1066674 7.07646006,26.6790606 7.88835341,26.602689 C8.70024677,26.5263174 9.50493519,26.8088198 10.0909162,27.3759439 L10.5245068,27.7951251 L19.3849513,20.9794121 C19.4236239,20.9499494 19.4781245,20.953625 19.512491,20.9880135 C19.5468574,21.022402 19.550498,21.0769049 19.5210105,21.1155587 L12.5901973,30.1253365 L13.194517,30.5433825 C13.3339941,30.6395695 13.4645257,30.7481217 13.5845302,30.867724 C14.1086396,31.3918064 14.4030835,32.1026309 14.4030835,32.8438144 C14.4030835,33.584998 14.1086396,34.2958225 13.5845302,34.8199049 C13.4722088,34.9318197 13.3506525,35.0340661 13.2211524,35.1255579 L12.8923571,35.3583782 L12.9292101,35.7595696 C13.0623704,37.1999652 12.2784969,38.5693256 10.9690002,39.18389 C9.65950343,39.7984543 8.10528755,39.5263905 7.08241715,38.5035478 L7.08241715,38.5035478 Z" id="Shape"></path>
                    </g>
                </g>
            </g>
        </g>
    </g>
</svg>